<svg width="200" height="200" viewBox="0 0 200 200" fill="none" xmlns="http://www.w3.org/2000/svg">
<path d="M80.0572 0C80.0572 0.0724955 80.1055 0.191123 80.1537 0.204304C81.1544 0.5536 81.4256 1.35768 81.4256 2.42534C81.4256 10.3823 81.4256 18.3414 81.4256 26.3027C81.4256 30.3976 81.4256 34.4881 81.4256 38.5742C81.4682 39.0453 81.3748 39.5192 81.1586 39.9293C80.9424 40.3394 80.6142 40.6652 80.22 40.8611C79.0144 41.5729 77.2783 40.3471 77.3145 38.6599C77.3929 35.4503 77.3145 32.2408 77.3145 29.0312C77.3145 20.6547 77.3145 12.2847 77.2783 3.91476C77.2783 2.33304 77.2783 0.843584 78.7974 0H80.0572Z" fill="#080807"/>
<rect x="192.164" y="55.3865" width="7.83644" height="8.56765" rx="1" fill="#743BFB"/>
<path d="M170.026 199.91H169.706C168.35 200.084 166.976 200.006 165.643 199.679L165.221 199.593C164.534 199.27 163.853 198.934 163.154 198.631C162.906 198.526 162.75 198.097 162.394 198.341C161.87 197.629 161.062 197.313 160.519 196.614C159.235 194.947 157.897 193.319 156.571 191.691C154.708 189.391 152.767 187.164 150.977 184.798C149.542 182.906 147.963 181.173 146.498 179.301C144.087 176.19 141.543 173.192 139.06 170.147L133.918 163.873C132.206 161.79 130.476 159.721 128.788 157.605C126.6 154.857 124.333 152.175 122.157 149.4C120.349 147.093 118.42 144.879 116.563 142.605C114.272 139.798 112.03 136.937 109.709 134.156C107.75 131.803 105.863 129.372 103.856 127.065C102.427 125.424 101.131 123.658 99.7628 121.957C98.0328 119.815 96.2786 117.687 94.5486 115.538C94.3812 115.342 94.1953 115.165 93.994 115.011C94.0362 114.846 94.0422 114.714 93.8252 114.787L93.6624 114.576C93.0711 113.576 92.348 112.676 91.5165 111.907L91.2874 111.716C91.3236 111.551 91.3296 111.419 91.1126 111.492L90.9498 111.281C90.3535 110.232 89.597 109.302 88.7134 108.532L88.5386 108.308C88.5989 108.018 88.3216 107.939 88.2312 107.742C88.1407 107.544 87.9961 107.353 87.767 107.465C87.538 107.577 87.6344 107.794 87.6404 107.972C87.6404 108.453 87.6404 108.934 87.6887 109.416C87.6887 109.613 87.6887 109.818 87.6887 110.015C87.5982 111.455 87.5982 112.899 87.6887 114.339V115.947C87.5983 117.333 87.5983 118.725 87.6887 120.112V122.854C87.6508 122.912 87.6305 122.983 87.6305 123.055C87.6305 123.127 87.6508 123.197 87.6887 123.256C87.6887 127.388 87.6887 131.52 87.6887 135.652C87.6887 138.144 87.6887 140.641 87.6887 143.126C87.6043 144.073 87.6043 145.026 87.6887 145.973V150.863C87.647 150.948 87.6252 151.043 87.6252 151.14C87.6252 151.237 87.647 151.332 87.6887 151.417V155.154C87.6043 157.256 87.6163 159.358 87.6887 161.461C87.6887 164.58 87.6887 167.695 87.6887 170.806C87.6013 171.695 87.6013 172.592 87.6887 173.482V184.481C87.6103 185.479 87.6103 186.482 87.6887 187.48C87.6283 188.007 87.6283 188.541 87.6887 189.068C87.5139 189.905 87.345 190.736 87.1702 191.573C87.059 191.74 87.0096 191.947 87.0316 192.153C86.7001 192.192 86.7302 192.555 86.5976 192.766C85.1991 195.046 83.3304 196.555 80.7625 196.608C76.9045 196.687 73.0405 196.608 69.1826 196.608C67.7537 196.568 66.3717 196.043 65.2282 195.105C63.8719 194.077 63.0883 192.594 62.3709 191.045C62.0881 189.435 61.9969 187.791 62.0997 186.155C62.0997 174.811 62.0997 163.471 62.0997 152.135C62.0997 151.035 62.0996 151.021 63.0943 151.008C64.0889 150.995 64.957 151.054 65.8792 151.008C66.5303 150.969 66.699 151.239 66.699 151.904C66.699 158.33 66.699 164.756 66.699 171.182C66.699 176.893 66.699 182.605 66.699 188.317C66.6799 188.769 66.7461 189.221 66.8935 189.643C67.041 190.066 67.2665 190.451 67.5561 190.775C67.8456 191.098 68.193 191.353 68.5766 191.523C68.9601 191.693 69.3716 191.775 69.7854 191.764C73.1008 191.764 76.4162 191.705 79.7256 191.764C80.1561 191.767 80.583 191.677 80.9815 191.499C81.38 191.321 81.7423 191.058 82.0472 190.726C82.3522 190.394 82.5939 189.999 82.7583 189.564C82.9227 189.129 83.0065 188.662 83.0049 188.192C82.9687 161.096 82.9687 133.998 83.0049 106.898C83.0049 104.374 83.0049 101.843 83.0049 99.3189C83.0049 98.7191 83.1797 98.4885 83.7222 98.4555C84.5301 98.3556 85.3482 98.4613 86.1126 98.7643C86.877 99.0672 87.567 99.5593 88.1287 100.202C89.9371 102.285 91.6611 104.42 93.4153 106.542C96.3811 110.114 99.3408 113.691 102.295 117.271C103.765 119.057 105.194 120.876 106.653 122.669C109.181 125.793 111.71 128.91 114.242 132.021C116.943 135.329 119.647 138.638 122.356 141.946C124.484 144.582 126.576 147.219 128.721 149.822C130.476 151.984 132.242 154.125 134.008 156.281C136.648 159.506 139.289 162.73 141.929 165.955C144.34 168.882 146.727 171.81 149.09 174.741C151.628 177.851 154.172 180.949 156.698 184.066C158.699 186.531 160.652 189.035 162.677 191.474C163.612 192.601 164.486 193.767 165.848 194.446C166.784 194.97 167.842 195.173 168.885 195.027C169.927 194.881 170.905 194.394 171.689 193.629C173.052 192.462 173.04 192.311 172.099 190.775C171.405 189.723 170.914 188.529 170.654 187.264C170.394 185.999 170.371 184.689 170.586 183.414C170.866 181.607 171.547 179.903 172.569 178.451C173.633 177.014 175.042 175.929 176.638 175.321C176.836 175.266 177.008 175.132 177.12 174.945C177.231 174.758 177.275 174.532 177.241 174.312C177.241 169.536 177.241 164.76 177.241 159.984C177.241 135.244 177.253 110.505 177.277 85.7688C177.277 84.0026 176.988 82.4736 175.415 81.5707C174.816 81.2344 174.146 81.0796 173.474 81.1225C169.477 81.2873 165.486 81.195 161.496 81.2016C160.752 81.1776 160.023 81.4361 159.434 81.9331C159.056 82.236 158.749 82.6333 158.54 83.0917C158.33 83.5502 158.223 84.0568 158.229 84.5693C158.229 104.446 158.229 124.325 158.229 144.207C158.229 145.347 158.174 145.386 157.114 145.334C156.294 145.277 155.493 145.039 154.759 144.635C154.026 144.231 153.375 143.668 152.846 142.981C151.073 140.879 149.343 138.737 147.613 136.595C145.262 133.704 142.922 130.804 140.591 127.895C138.477 125.259 136.355 122.623 134.225 119.987C132.095 117.35 129.939 114.712 127.757 112.072C126.039 109.963 124.279 107.893 122.627 105.718C121.422 104.117 120.125 102.608 118.896 101.026C116.886 98.4555 114.861 95.9028 112.82 93.3677C110.282 90.2306 107.672 87.166 105.164 83.996C104.013 82.5329 102.843 81.0764 101.674 79.6331C99.0394 76.3708 96.4896 73.0426 93.7529 69.8659C92.4388 68.3435 91.2693 66.6695 89.9974 65.0944C88.7255 63.5193 87.7308 61.9178 86.0852 60.8699C85.0723 60.1762 84.0169 59.5596 82.9265 59.0245C80.0572 57.7064 77.0552 57.6603 74.0472 58.0096C72.3146 58.2669 70.636 58.8512 69.0861 59.7363C65.4122 61.632 62.4668 64.8826 60.7674 68.9169C59.2191 72.4106 58.6668 76.3324 59.1821 80.1735C59.8331 84.7868 61.6958 88.6818 65.1619 91.5684C65.618 91.9709 66.1016 92.3344 66.6086 92.6559C66.9343 92.7996 67.205 93.0615 67.3751 93.3974C67.5452 93.7334 67.6044 94.1231 67.543 94.5012C67.5008 94.8769 67.543 95.2657 67.543 95.648C67.464 96.2188 67.5068 96.8019 67.6678 97.3518C67.8288 97.9016 68.1038 98.4034 68.4713 98.818C69.7553 100.274 69.6769 102.397 68.5195 104.09C67.9488 104.802 67.1985 105.312 66.363 105.559C65.5275 105.805 64.644 105.776 63.8237 105.474C63.2061 105.238 62.6523 104.837 62.2126 104.308C61.7729 103.778 61.4613 103.137 61.3061 102.442C61.151 101.747 61.1572 101.021 61.3242 100.329C61.4912 99.6374 61.8138 99.0025 62.2624 98.4819C62.4477 98.2918 62.5914 98.0584 62.6827 97.7992C62.774 97.5399 62.8106 97.2615 62.7897 96.9846C62.7689 96.7077 62.6911 96.4396 62.5622 96.2001C62.4333 95.9607 62.2567 95.7562 62.0454 95.6018C59.5206 93.3309 57.5041 90.459 56.15 87.2055C55.5356 85.702 55.0551 84.1372 54.7153 82.5329C54.3248 80.3637 54.1771 78.1506 54.2753 75.9424C54.4576 71.6308 55.7191 67.4567 57.9222 63.8752C59.2825 61.5372 60.9897 59.4636 62.9737 57.7394C64.2182 56.665 65.5762 55.7577 67.0185 55.0373C69.668 53.6649 72.5319 52.8553 75.4578 52.6515C78.1365 52.4554 80.8249 52.82 83.3786 53.7258C85.4329 54.451 87.3681 55.53 89.1113 56.9222C90.5022 58.0819 91.77 59.4083 92.8909 60.8765C95.5733 64.2772 98.2257 67.7042 100.993 71.0193C102.626 72.9964 104.169 75.0131 105.815 76.9903C108.323 80.0548 110.848 83.1062 113.338 86.217C115.333 88.6818 117.28 91.206 119.276 93.684C121.548 96.5047 123.827 99.3189 126.081 102.159C127.219 103.596 128.364 105.033 129.517 106.47C132.097 109.679 134.713 112.856 137.299 116.065C138.505 117.535 139.602 119.077 140.814 120.521C142.393 122.419 143.876 124.402 145.461 126.287C146.944 128.053 148.295 129.945 149.808 131.678C150.875 132.897 151.761 134.314 152.93 135.415C153.069 135.547 153.099 135.883 153.364 135.764C153.629 135.646 153.503 135.376 153.509 135.171C153.509 132.293 153.509 129.411 153.509 126.524C153.509 113.04 153.497 99.5584 153.473 86.0786C153.402 84.1746 153.726 82.2778 154.419 80.5294C155.179 79.5737 155.824 78.4863 156.83 77.7943C156.87 77.7088 156.925 77.6331 156.992 77.5718C157.06 77.5106 157.138 77.4652 157.222 77.4384C158.251 76.9162 159.323 76.5014 160.423 76.1994C165.366 76.1994 170.309 76.1137 175.252 76.2719C177.332 76.3444 179.037 77.6493 180.358 79.4551C181.419 80.9354 181.973 82.7749 181.925 84.655C181.925 105.925 181.925 127.194 181.925 148.464C181.925 157.032 181.925 165.6 181.961 174.167C181.943 174.284 181.946 174.403 181.97 174.518C181.994 174.633 182.039 174.742 182.102 174.838C182.165 174.934 182.244 175.016 182.336 175.078C182.428 175.141 182.53 175.183 182.636 175.202C186.591 176.645 188.839 179.697 189.267 184.211C189.605 187.691 188.417 190.591 186.042 192.917C185.855 193.102 185.614 193.22 185.53 193.504C184.747 193.83 183.995 194.24 183.287 194.73L182.871 194.835C182.112 195.006 181.364 195.224 180.605 195.342C179.652 195.44 178.691 195.331 177.778 195.02C177.618 194.942 177.439 194.927 177.271 194.977C177.103 195.028 176.956 195.141 176.855 195.296C175.308 197.641 173.009 199.262 170.417 199.837C170.285 199.843 170.153 199.867 170.026 199.91ZM180.056 179.756C177.307 179.525 175.18 182.161 175.101 184.923C175.122 186.223 175.57 187.471 176.364 188.439C177.158 189.407 178.244 190.031 179.423 190.195C180.081 190.262 180.744 190.181 181.372 189.956C182 189.731 182.579 189.368 183.073 188.888C183.567 188.409 183.965 187.823 184.244 187.168C184.522 186.514 184.675 185.803 184.692 185.081C184.713 184.397 184.609 183.715 184.386 183.076C184.164 182.436 183.827 181.852 183.395 181.356C182.964 180.86 182.446 180.463 181.873 180.189C181.3 179.914 180.682 179.767 180.056 179.756Z" fill="#080807"/>
<path d="M52.726 49.1981C52.7056 49.6266 52.5837 50.042 52.3724 50.4037C52.1611 50.7653 51.8675 51.0606 51.5204 51.2609C51.166 51.4318 50.7726 51.4817 50.3919 51.4041C50.0111 51.3265 49.6607 51.125 49.3864 50.8259C47.8915 49.2574 46.4146 47.6625 44.9377 46.0676L27.8302 27.4692C26.3473 25.8546 24.8704 24.2267 23.3875 22.6054C22.4532 21.5839 22.3206 20.2197 23.1102 19.3695C24.141 18.2689 25.2502 18.3018 26.287 19.4156C28.9192 22.2671 31.5495 25.123 34.1777 27.9833C36.8059 30.8436 39.4824 33.761 42.2071 36.7355C45.5406 40.3932 48.8379 44.0707 52.2015 47.7218C52.3773 47.9151 52.5146 48.146 52.6049 48.4C52.6951 48.6541 52.7363 48.9258 52.726 49.1981Z" fill="#080807"/>
<path d="M24.6355 141.689C23.6469 141.867 23.1768 141.096 22.7729 140.305C22.6075 139.924 22.5627 139.494 22.6456 139.082C22.7286 138.671 22.9346 138.301 23.231 138.031C26.884 134.038 30.541 130.05 34.202 126.07C37.6581 122.291 41.1122 118.51 44.5642 114.727C45.9748 113.185 47.3974 111.643 48.8381 110.114C49.3806 109.541 49.9774 108.987 50.8213 109.211C52.2258 109.587 53.2687 111.538 51.8642 113.093C50.1583 114.984 48.4282 116.856 46.7102 118.734C39.9628 126.12 33.2054 133.502 26.4379 140.878C26.2206 141.164 25.9428 141.387 25.6287 141.528C25.3146 141.669 24.9736 141.725 24.6355 141.689Z" fill="#080807"/>
<path d="M21.0066 82.0188H2.03637C1.5504 82.0425 1.07368 81.8682 0.698426 81.5298C0.323175 81.1914 0.0760731 80.7128 0.00492972 80.1867C-0.0243221 79.7006 0.0770738 79.2157 0.296637 78.7918C0.5162 78.3679 0.844338 78.0235 1.24067 77.8009C1.38542 77.7552 1.53673 77.7396 1.68676 77.7548C14.2773 77.7548 26.8719 77.7548 39.4705 77.7548C40.2963 77.7548 41.2005 77.623 41.731 78.6577C41.9226 78.9887 42.0332 79.368 42.0522 79.7593C42.0712 80.1505 41.998 80.5405 41.8395 80.8919C41.6679 81.2484 41.4063 81.5436 41.0857 81.7422C40.7651 81.9408 40.399 82.0346 40.0311 82.0122C33.6856 82.0122 27.338 82.0122 20.9885 82.0122L21.0066 82.0188Z" fill="#080807"/>
<path d="M119.776 39.8132L118.637 41.0786L116.159 43.7807C115.984 43.9784 115.803 44.1761 115.629 44.3804L111.337 49.0465L110.499 49.9758C110.439 49.9879 110.384 50.0196 110.341 50.0667C110.298 50.1138 110.269 50.174 110.258 50.2394L109.601 50.9709C109.349 51.1514 109.065 51.2706 108.767 51.3207C108.47 51.3707 108.166 51.3504 107.876 51.2611C107.586 51.1717 107.318 51.0155 107.088 50.8028C106.858 50.5902 106.673 50.3261 106.544 50.0285C106.496 49.8769 106.454 49.7187 106.412 49.5671C106.345 48.5456 106.858 47.8602 107.485 47.1814C111.011 43.3655 114.513 39.5298 118.028 35.7007C122.995 30.2877 127.962 24.8725 132.929 19.4551C133.205 19.1552 133.546 18.9372 133.921 18.8218C134.295 18.7065 134.691 18.6976 135.069 18.7961C135.28 18.829 135.407 19.1652 135.672 18.9938L136.052 19.5738C136.303 20.194 136.391 20.879 136.305 21.5509C136.238 21.6893 136.178 21.8343 136.112 21.9661C134.786 23.4094 133.454 24.8462 132.133 26.2961L119.776 39.8132Z" fill="#080807"/>
<path d="M31.1637 102.97C31.1291 102.437 31.2672 101.908 31.5538 101.475C31.8404 101.043 32.2571 100.734 32.7309 100.604C34.1752 100.127 35.5855 99.534 36.9506 98.8312C37.6679 98.495 38.4033 98.126 39.1267 97.8228C39.8501 97.5197 40.7302 97.1637 41.5379 96.7947C42.3457 96.4256 43.1293 96.1949 43.8828 95.7797C44.6363 95.3645 45.1608 95.5754 45.5887 96.3861C45.9746 96.9745 46.1851 97.6787 46.1915 98.4028C46.1554 99.0948 45.86 99.4177 45.2271 99.7209C44.5941 100.024 43.8768 100.334 43.2197 100.644C42.5755 100.988 41.9085 101.278 41.2245 101.513C40.7515 101.652 40.2945 101.849 39.8621 102.1C38.8376 102.628 37.7894 103.098 36.7215 103.51C35.7249 103.95 34.7383 104.389 33.7617 104.828C33.4804 104.978 33.1684 105.045 32.8562 105.024C32.544 105.002 32.2422 104.892 31.9805 104.705C31.7187 104.518 31.5058 104.26 31.3626 103.955C31.2195 103.651 31.1509 103.312 31.1637 102.97ZM45.9323 98.9234H45.9745V98.8707L45.9323 98.9234Z" fill="#743BFB"/>
<path d="M38.1745 58.8137C39.4223 59.4332 40.7002 60.0065 41.9661 60.5535C43.0654 61.0928 44.1949 61.5551 45.3479 61.9376C45.9145 62.1023 46.0833 63.6774 45.6734 64.3563C45.5723 64.509 45.4892 64.6751 45.4262 64.8505C45.3825 65.0471 45.3012 65.2313 45.1877 65.391C45.0741 65.5507 44.9308 65.6822 44.7673 65.7769C44.6038 65.8716 44.4238 65.9272 44.2391 65.9402C44.0545 65.9532 43.8694 65.9233 43.6961 65.8523C42.6231 65.358 41.5441 64.811 40.4531 64.409C39.362 64.007 38.1986 63.3413 37.0171 62.9327C36.1672 62.6296 35.3172 62.2078 34.4793 61.8057C33.5389 61.351 32.5744 60.9555 31.616 60.5469C31.1036 60.3294 30.5852 58.7741 30.9107 58.2534C31.4532 57.3901 32.0138 56.5004 33.1893 56.7508C33.7921 56.8826 34.3105 57.3176 34.9193 57.5021C36.0345 57.8382 37.0352 58.5434 38.1745 58.8202V58.8137Z" fill="#743BFB"/>
<path d="M59.9415 28.6753C60.3426 28.739 60.7231 28.9102 61.0491 29.1735C61.3751 29.4368 61.6366 29.7841 61.8102 30.1845C62.2744 31.2324 62.5938 32.3462 62.9736 33.4205C63.3534 34.4947 63.8658 35.648 64.2576 36.7882C64.4341 37.5347 64.6996 38.2526 65.0473 38.9235C65.3624 39.5554 65.5668 40.2461 65.6501 40.96C65.7344 41.395 66.0057 41.7047 66.078 42.1792C66.2709 43.4051 65.8731 44.2684 64.7459 44.532C64.2094 44.6573 63.703 44.9407 63.1243 44.5848C62.9977 44.5057 62.8229 44.4266 62.7686 44.3146C62.3848 43.5344 62.0602 42.721 61.7981 41.8827C61.6052 41.1577 61.2375 40.525 61.0205 39.8067C60.7071 38.7654 60.3393 37.7306 59.9716 36.7091C59.7124 36.0039 59.6461 35.1538 59.1036 34.554C58.7118 34.1191 58.7238 33.4798 58.5611 32.9394C58.3983 32.3989 58.2235 32.0365 58.0969 31.5685C57.9871 31.2436 57.9508 30.8945 57.991 30.5509C58.0313 30.2073 58.1469 29.8794 58.3281 29.5952C58.5093 29.3111 58.7506 29.079 59.0315 28.9188C59.3125 28.7586 59.6246 28.6751 59.9415 28.6753ZM59.3387 28.9389V28.8862H59.2905L59.3387 28.9389ZM61.4244 40.6305C61.4244 40.6305 61.4666 40.6305 61.4666 40.5909C61.4666 40.5514 61.4666 40.5514 61.4666 40.5382C61.4666 40.525 61.4244 40.5382 61.4244 40.5777C61.4244 40.6173 61.4123 40.6305 61.4244 40.6305ZM60.8216 38.8972V38.9499H60.8638L60.8216 38.8972ZM59.0132 33.9543L58.9831 34.007H59.0312L59.0132 33.9543Z" fill="#743BFB"/>
<path d="M95.1995 44.7759C94.7749 44.7785 94.3545 44.683 93.966 44.4956C93.5775 44.3082 93.2296 44.0331 92.9451 43.6885C92.8086 43.5406 92.7228 43.346 92.702 43.1373C92.6811 42.9285 92.7265 42.7183 92.8305 42.5417C93.138 41.8827 93.2465 41.0984 93.4996 40.4196C93.8432 39.5167 94.1989 38.6072 94.5124 37.6911C94.9461 36.6924 95.2854 35.6479 95.5251 34.5738C95.6274 34.1998 95.7797 33.8445 95.9772 33.5193C96.4655 32.3528 96.7126 31.0808 97.3094 29.9736C97.9061 28.8664 98.3884 28.7148 99.5217 28.9982C99.9765 29.078 100.385 29.3483 100.661 29.7518C100.936 30.1554 101.058 30.6604 100.999 31.1599C100.94 31.5453 100.828 31.9187 100.667 32.2671C100.016 33.768 99.4448 35.3083 98.955 36.8805C98.3522 38.6731 97.659 40.4525 97.1044 42.2715C96.9179 42.7441 96.7569 43.2282 96.6222 43.7214C96.4474 44.6441 95.8687 44.7561 95.1995 44.7759ZM100.528 32.3791L100.48 32.3462V32.3989L100.528 32.3791ZM100.794 30.2702V30.2175H100.751L100.794 30.2702Z" fill="#743BFB"/>
<rect x="187.699" y="69.912" width="7.83644" height="8.56765" rx="1" fill="#743BFB"/>
<rect x="178.415" y="60.882" width="7.83644" height="8.56765" rx="1" fill="#743BFB"/>
<path d="M62.4253 117.08C62.4253 115.96 62.4253 114.833 62.4253 113.706C62.4253 112.691 63.5466 111.564 64.7401 111.604C65.2761 111.651 65.7802 111.901 66.1654 112.312C66.5506 112.722 66.7927 113.266 66.8499 113.851C66.8499 115.986 66.8499 118.128 66.8499 120.27C66.8499 120.929 66.6389 121.147 66.0603 121.127C65.0837 121.127 64.1011 121.127 63.1246 121.127C62.558 121.127 62.3892 120.863 62.4012 120.277C62.4012 119.209 62.4012 118.141 62.4012 117.067L62.4253 117.08Z" fill="#080807"/>
<rect x="62.116" y="139.048" width="4.82243" height="5.2724" rx="1" fill="#743BFB"/>
<rect x="62.1184" y="127.516" width="4.82243" height="5.2724" rx="1" fill="#743BFB"/>
</svg>
