<svg width="702" height="72" viewBox="0 0 702 72" fill="none" xmlns="http://www.w3.org/2000/svg">
<path d="M658.984 0.798828H650.32V27.8339L658.984 17.6403V0.798828Z" fill="black"/>
<path d="M658.984 51.3234L650.32 42.0162V69.4945H658.984V51.3234Z" fill="black"/>
<path d="M658.984 0.798828H650.32V27.8339L658.984 17.6403V0.798828Z" stroke="black"/>
<path d="M658.984 51.3234L650.32 42.0162V69.4945H658.984V51.3234Z" stroke="black"/>
<path d="M689.309 1.66833L661.15 36.4509L689.309 69.0596H700.5L672.702 36.4509L700.5 1.66833H689.309Z" fill="#783DFD" stroke="#783DFD"/>
<path d="M571.98 12.1031H607.72V1.66833H577.16C573.716 1.66833 570.245 1.96807 567.095 3.35859C559.841 6.55972 547.07 15.1577 547.07 36.0162C547.07 65.147 569.814 69.4944 571.98 69.4944H607.72V59.0596H571.98C571.98 59.0596 555.735 56.0162 555.374 36.0162C555.013 16.0162 571.98 12.1031 571.98 12.1031Z" fill="black" stroke="black"/>
<path d="M506.637 0.798828H497.973V69.4945H506.637V0.798828Z" fill="black" stroke="black"/>
<path d="M401.944 11.4356V0.798828H440.211C440.211 0.798828 458.984 4.78761 458.984 25.6179C458.984 46.4482 443.821 50.437 443.821 50.437L446.348 54.4258L440.211 60.6305L432.269 50.437H410.247V69.4945H401.944V40.6866H440.211C440.211 40.6866 451.132 38.4706 450.681 25.6179C450.229 12.7652 440.211 11.4356 440.211 11.4356H401.944Z" fill="#783DFD" stroke="#783DFD"/>
<path d="M450.32 61.6683L444.543 67.7553L447.07 70.7988H458.984L450.32 61.6683Z" fill="black" stroke="black"/>
<path d="M356.818 0.798828H300.861V10.364H356.818V0.798828Z" fill="black"/>
<path d="M356.818 0.798828H300.861V10.364H356.818V0.798828Z" fill="black"/>
<path d="M356.818 0.798828H300.861V10.364H356.818V0.798828Z" stroke="black"/>
<path d="M332.63 69.4945V22.538H324.688V69.4945H332.63Z" fill="black"/>
<path d="M332.63 69.4945V22.538H324.688V69.4945H332.63Z" fill="black"/>
<path d="M332.63 69.4945V22.538H324.688V69.4945H332.63Z" stroke="black"/>
<path d="M98.6949 10.364V0.798828H154.291V10.364H98.6949Z" fill="black" stroke="black"/>
<path d="M98.6949 69.4945V59.9293H154.291V69.4945H98.6949Z" fill="black" stroke="black"/>
<path d="M98.6949 39.0597V29.4945H154.291V39.0597H98.6949Z" fill="#7A3AFD" stroke="#7A3AFD"/>
<path d="M199.778 10.364V0.798828H255.374V10.364H199.778Z" fill="black" stroke="black"/>
<path d="M199.778 69.4945V59.9293H255.374V69.4945H199.778Z" fill="black" stroke="black"/>
<path d="M199.778 39.0597V29.4945H255.374V39.0597H199.778Z" fill="#7A3AFD" stroke="#7A3AFD"/>
<path d="M0.5 1.23364V69.0597H7.72022V28.6249L24.6877 46.0163V39.0597L53.5686 69.0597V1.23364H45.6264V47.7554L0.5 1.23364Z" fill="black" stroke="black"/>
</svg>
